<?xml version="1.0" standalone="no"?>
<!DOCTYPE svg PUBLIC "-//W3C//DTD SVG 20010904//EN"
 "http://www.w3.org/TR/2001/REC-SVG-20010904/DTD/svg10.dtd">
<svg version="1.0" xmlns="http://www.w3.org/2000/svg"
 width="355.000000pt" height="339.000000pt" viewBox="0 0 355.000000 339.000000"
 preserveAspectRatio="xMidYMid meet">

<g transform="translate(0.000000,339.000000) scale(0.100000,-0.100000)"
fill="#000000" stroke="none">
<path d="M570 2383 c-217 -377 -395 -694 -395 -703 0 -9 178 -326 395 -703
l395 -686 805 0 805 0 395 685 c217 377 395 694 395 704 0 10 -178 327 -395
704 l-395 686 -805 -1 -805 0 -395 -686z m2357 -28 c237 -409 381 -668 379
-680 -2 -11 -174 -315 -383 -675 l-379 -655 -773 0 -774 0 -383 664 c-211 364
-384 667 -384 671 0 6 506 886 732 1273 l39 67 772 -2 771 -3 383 -660z"/>
<path d="M1037 2758 c-320 -548 -618 -1074 -614 -1087 3 -9 153 -272 334 -586
l330 -570 684 0 683 0 333 575 c182 316 332 582 332 590 0 8 -150 274 -332
590 l-333 575 -681 3 -682 2 -54 -92z m1708 -504 c176 -306 320 -564 320 -574
0 -10 -144 -269 -320 -574 l-320 -555 -655 2 -655 2 -322 558 c-178 307 -323
563 -323 567 0 7 594 1042 636 1108 l14 22 653 0 652 -1 320 -555z"/>
<path d="M1280 2149 l0 -285 65 -64 65 -64 0 285 0 285 -65 64 -65 64 0 -285z
m110 -108 l0 -245 -45 44 -45 44 0 245 0 245 45 -44 45 -44 0 -245z"/>
<path d="M1587 2192 c-84 -84 -87 -89 -87 -132 0 -43 4 -49 70 -115 l70 -69 0
70 c0 58 4 74 20 89 20 18 21 18 45 -5 23 -22 25 -31 25 -112 l0 -89 -49 -52
-50 -52 -89 88 c-49 48 -92 87 -96 87 -4 0 -6 -45 -5 -99 l2 -100 94 -93 93
-93 0 -170 0 -170 93 -93 92 -92 98 98 c94 94 97 99 97 142 0 43 -4 49 -75
120 l-75 74 0 -75 c0 -61 -4 -79 -18 -92 -24 -22 -35 -21 -55 1 -14 15 -17 40
-17 119 l0 101 53 46 52 45 93 -92 92 -92 0 110 0 110 -93 93 c-51 51 -96 89
-100 86 -4 -4 -7 66 -7 157 l0 164 -87 87 c-48 49 -90 88 -93 88 -3 0 -45 -39
-93 -88z m180 -24 l73 -72 0 -162 0 -161 -107 -106 -108 -106 -77 77 -78 77 0
65 0 65 78 -78 78 -77 62 63 62 63 0 104 c0 104 0 104 -32 137 l-32 33 -38
-37 c-31 -31 -38 -44 -38 -77 l0 -40 -40 39 c-34 33 -40 46 -40 79 0 37 7 47
72 113 40 40 77 73 83 73 5 0 42 -33 82 -72z m273 -645 c0 -35 -3 -63 -7 -63
-4 0 -42 34 -83 75 l-76 76 -67 -66 -67 -66 0 -102 0 -103 40 -39 40 -39 35
34 c30 29 35 41 35 79 l0 45 45 -44 c36 -36 45 -51 45 -79 0 -31 -10 -46 -82
-118 l-83 -83 -82 82 -83 83 0 165 0 165 112 112 113 113 82 -82 83 -83 0 -62z"/>
<path d="M2100 1264 l0 -302 68 -62 67 -63 3 294 2 294 -70 70 -70 70 0 -301z
m72 189 l38 -37 0 -260 0 -260 -45 44 -45 44 0 253 c0 139 3 253 7 253 4 0 24
-17 45 -37z"/>
</g>
</svg>
